<?xml version="1.0" encoding="utf-8" standalone="no"?>
<!DOCTYPE svg PUBLIC "-//W3C//DTD SVG 1.1//EN"
  "http://www.w3.org/Graphics/SVG/1.1/DTD/svg11.dtd">
<!-- Created with matplotlib (https://matplotlib.org/) -->
<svg height="648pt" version="1.1" viewBox="0 0 648 648" width="648pt" xmlns="http://www.w3.org/2000/svg" xmlns:xlink="http://www.w3.org/1999/xlink">
 <metadata>
  <rdf:RDF xmlns:cc="http://creativecommons.org/ns#" xmlns:dc="http://purl.org/dc/elements/1.1/" xmlns:rdf="http://www.w3.org/1999/02/22-rdf-syntax-ns#">
   <cc:Work>
    <dc:type rdf:resource="http://purl.org/dc/dcmitype/StillImage"/>
    <dc:date>2020-12-12T17:42:38.374954</dc:date>
    <dc:format>image/svg+xml</dc:format>
    <dc:creator>
     <cc:Agent>
      <dc:title>Matplotlib v3.3.3, https://matplotlib.org/</dc:title>
     </cc:Agent>
    </dc:creator>
   </cc:Work>
  </rdf:RDF>
 </metadata>
 <defs>
  <style type="text/css">*{stroke-linecap:butt;stroke-linejoin:round;}</style>
 </defs>
 <g id="figure_1">
  <g id="patch_1">
   <path d="M 0 648 
L 648 648 
L 648 0 
L 0 0 
z
" style="fill:#ffffff;"/>
  </g>
  <g id="axes_1">
   <g id="patch_2">
    <path d="M 81 576.72 
L 583.2 576.72 
L 583.2 77.76 
L 81 77.76 
z
" style="fill:#eaeaf2;"/>
   </g>
   <g id="matplotlib.axis_1">
    <g id="xtick_1">
     <g id="line2d_1">
      <path clip-path="url(#p95720a06c2)" d="M 103.827273 576.72 
L 103.827273 77.76 
" style="fill:none;stroke:#ffffff;stroke-linecap:round;"/>
     </g>
     <g id="text_1">
      <!-- 0 -->
      <g style="fill:#262626;" transform="translate(100.327898 594.578281)scale(0.11 -0.11)">
       <defs>
        <path d="M 31.78125 66.40625 
Q 24.171875 66.40625 20.328125 58.90625 
Q 16.5 51.421875 16.5 36.375 
Q 16.5 21.390625 20.328125 13.890625 
Q 24.171875 6.390625 31.78125 6.390625 
Q 39.453125 6.390625 43.28125 13.890625 
Q 47.125 21.390625 47.125 36.375 
Q 47.125 51.421875 43.28125 58.90625 
Q 39.453125 66.40625 31.78125 66.40625 
z
M 31.78125 74.21875 
Q 44.046875 74.21875 50.515625 64.515625 
Q 56.984375 54.828125 56.984375 36.375 
Q 56.984375 17.96875 50.515625 8.265625 
Q 44.046875 -1.421875 31.78125 -1.421875 
Q 19.53125 -1.421875 13.0625 8.265625 
Q 6.59375 17.96875 6.59375 36.375 
Q 6.59375 54.828125 13.0625 64.515625 
Q 19.53125 74.21875 31.78125 74.21875 
z
" id="DejaVuSans-48"/>
       </defs>
       <use xlink:href="#DejaVuSans-48"/>
      </g>
     </g>
    </g>
    <g id="xtick_2">
     <g id="line2d_2">
      <path clip-path="url(#p95720a06c2)" d="M 195.145495 576.72 
L 195.145495 77.76 
" style="fill:none;stroke:#ffffff;stroke-linecap:round;"/>
     </g>
     <g id="text_2">
      <!-- 20 -->
      <g style="fill:#262626;" transform="translate(188.146745 594.578281)scale(0.11 -0.11)">
       <defs>
        <path d="M 19.1875 8.296875 
L 53.609375 8.296875 
L 53.609375 0 
L 7.328125 0 
L 7.328125 8.296875 
Q 12.9375 14.109375 22.625 23.890625 
Q 32.328125 33.6875 34.8125 36.53125 
Q 39.546875 41.84375 41.421875 45.53125 
Q 43.3125 49.21875 43.3125 52.78125 
Q 43.3125 58.59375 39.234375 62.25 
Q 35.15625 65.921875 28.609375 65.921875 
Q 23.96875 65.921875 18.8125 64.3125 
Q 13.671875 62.703125 7.8125 59.421875 
L 7.8125 69.390625 
Q 13.765625 71.78125 18.9375 73 
Q 24.125 74.21875 28.421875 74.21875 
Q 39.75 74.21875 46.484375 68.546875 
Q 53.21875 62.890625 53.21875 53.421875 
Q 53.21875 48.921875 51.53125 44.890625 
Q 49.859375 40.875 45.40625 35.40625 
Q 44.1875 33.984375 37.640625 27.21875 
Q 31.109375 20.453125 19.1875 8.296875 
z
" id="DejaVuSans-50"/>
       </defs>
       <use xlink:href="#DejaVuSans-50"/>
       <use x="63.623047" xlink:href="#DejaVuSans-48"/>
      </g>
     </g>
    </g>
    <g id="xtick_3">
     <g id="line2d_3">
      <path clip-path="url(#p95720a06c2)" d="M 286.463718 576.72 
L 286.463718 77.76 
" style="fill:none;stroke:#ffffff;stroke-linecap:round;"/>
     </g>
     <g id="text_3">
      <!-- 40 -->
      <g style="fill:#262626;" transform="translate(279.464968 594.578281)scale(0.11 -0.11)">
       <defs>
        <path d="M 37.796875 64.3125 
L 12.890625 25.390625 
L 37.796875 25.390625 
z
M 35.203125 72.90625 
L 47.609375 72.90625 
L 47.609375 25.390625 
L 58.015625 25.390625 
L 58.015625 17.1875 
L 47.609375 17.1875 
L 47.609375 0 
L 37.796875 0 
L 37.796875 17.1875 
L 4.890625 17.1875 
L 4.890625 26.703125 
z
" id="DejaVuSans-52"/>
       </defs>
       <use xlink:href="#DejaVuSans-52"/>
       <use x="63.623047" xlink:href="#DejaVuSans-48"/>
      </g>
     </g>
    </g>
    <g id="xtick_4">
     <g id="line2d_4">
      <path clip-path="url(#p95720a06c2)" d="M 377.781941 576.72 
L 377.781941 77.76 
" style="fill:none;stroke:#ffffff;stroke-linecap:round;"/>
     </g>
     <g id="text_4">
      <!-- 60 -->
      <g style="fill:#262626;" transform="translate(370.783191 594.578281)scale(0.11 -0.11)">
       <defs>
        <path d="M 33.015625 40.375 
Q 26.375 40.375 22.484375 35.828125 
Q 18.609375 31.296875 18.609375 23.390625 
Q 18.609375 15.53125 22.484375 10.953125 
Q 26.375 6.390625 33.015625 6.390625 
Q 39.65625 6.390625 43.53125 10.953125 
Q 47.40625 15.53125 47.40625 23.390625 
Q 47.40625 31.296875 43.53125 35.828125 
Q 39.65625 40.375 33.015625 40.375 
z
M 52.59375 71.296875 
L 52.59375 62.3125 
Q 48.875 64.0625 45.09375 64.984375 
Q 41.3125 65.921875 37.59375 65.921875 
Q 27.828125 65.921875 22.671875 59.328125 
Q 17.53125 52.734375 16.796875 39.40625 
Q 19.671875 43.65625 24.015625 45.921875 
Q 28.375 48.1875 33.59375 48.1875 
Q 44.578125 48.1875 50.953125 41.515625 
Q 57.328125 34.859375 57.328125 23.390625 
Q 57.328125 12.15625 50.6875 5.359375 
Q 44.046875 -1.421875 33.015625 -1.421875 
Q 20.359375 -1.421875 13.671875 8.265625 
Q 6.984375 17.96875 6.984375 36.375 
Q 6.984375 53.65625 15.1875 63.9375 
Q 23.390625 74.21875 37.203125 74.21875 
Q 40.921875 74.21875 44.703125 73.484375 
Q 48.484375 72.75 52.59375 71.296875 
z
" id="DejaVuSans-54"/>
       </defs>
       <use xlink:href="#DejaVuSans-54"/>
       <use x="63.623047" xlink:href="#DejaVuSans-48"/>
      </g>
     </g>
    </g>
    <g id="xtick_5">
     <g id="line2d_5">
      <path clip-path="url(#p95720a06c2)" d="M 469.100164 576.72 
L 469.100164 77.76 
" style="fill:none;stroke:#ffffff;stroke-linecap:round;"/>
     </g>
     <g id="text_5">
      <!-- 80 -->
      <g style="fill:#262626;" transform="translate(462.101414 594.578281)scale(0.11 -0.11)">
       <defs>
        <path d="M 31.78125 34.625 
Q 24.75 34.625 20.71875 30.859375 
Q 16.703125 27.09375 16.703125 20.515625 
Q 16.703125 13.921875 20.71875 10.15625 
Q 24.75 6.390625 31.78125 6.390625 
Q 38.8125 6.390625 42.859375 10.171875 
Q 46.921875 13.96875 46.921875 20.515625 
Q 46.921875 27.09375 42.890625 30.859375 
Q 38.875 34.625 31.78125 34.625 
z
M 21.921875 38.8125 
Q 15.578125 40.375 12.03125 44.71875 
Q 8.5 49.078125 8.5 55.328125 
Q 8.5 64.0625 14.71875 69.140625 
Q 20.953125 74.21875 31.78125 74.21875 
Q 42.671875 74.21875 48.875 69.140625 
Q 55.078125 64.0625 55.078125 55.328125 
Q 55.078125 49.078125 51.53125 44.71875 
Q 48 40.375 41.703125 38.8125 
Q 48.828125 37.15625 52.796875 32.3125 
Q 56.78125 27.484375 56.78125 20.515625 
Q 56.78125 9.90625 50.3125 4.234375 
Q 43.84375 -1.421875 31.78125 -1.421875 
Q 19.734375 -1.421875 13.25 4.234375 
Q 6.78125 9.90625 6.78125 20.515625 
Q 6.78125 27.484375 10.78125 32.3125 
Q 14.796875 37.15625 21.921875 38.8125 
z
M 18.3125 54.390625 
Q 18.3125 48.734375 21.84375 45.5625 
Q 25.390625 42.390625 31.78125 42.390625 
Q 38.140625 42.390625 41.71875 45.5625 
Q 45.3125 48.734375 45.3125 54.390625 
Q 45.3125 60.0625 41.71875 63.234375 
Q 38.140625 66.40625 31.78125 66.40625 
Q 25.390625 66.40625 21.84375 63.234375 
Q 18.3125 60.0625 18.3125 54.390625 
z
" id="DejaVuSans-56"/>
       </defs>
       <use xlink:href="#DejaVuSans-56"/>
       <use x="63.623047" xlink:href="#DejaVuSans-48"/>
      </g>
     </g>
    </g>
    <g id="xtick_6">
     <g id="line2d_6">
      <path clip-path="url(#p95720a06c2)" d="M 560.418386 576.72 
L 560.418386 77.76 
" style="fill:none;stroke:#ffffff;stroke-linecap:round;"/>
     </g>
     <g id="text_6">
      <!-- 100 -->
      <g style="fill:#262626;" transform="translate(549.920261 594.578281)scale(0.11 -0.11)">
       <defs>
        <path d="M 12.40625 8.296875 
L 28.515625 8.296875 
L 28.515625 63.921875 
L 10.984375 60.40625 
L 10.984375 69.390625 
L 28.421875 72.90625 
L 38.28125 72.90625 
L 38.28125 8.296875 
L 54.390625 8.296875 
L 54.390625 0 
L 12.40625 0 
z
" id="DejaVuSans-49"/>
       </defs>
       <use xlink:href="#DejaVuSans-49"/>
       <use x="63.623047" xlink:href="#DejaVuSans-48"/>
       <use x="127.246094" xlink:href="#DejaVuSans-48"/>
      </g>
     </g>
    </g>
    <g id="text_7">
     <!-- $x$ -->
     <g style="fill:#262626;" transform="translate(328.5 609.984063)scale(0.12 -0.12)">
      <defs>
       <path d="M 60.015625 54.6875 
L 34.90625 27.875 
L 50.296875 0 
L 39.984375 0 
L 28.421875 21.6875 
L 8.296875 0 
L -2.59375 0 
L 24.3125 28.8125 
L 10.015625 54.6875 
L 20.3125 54.6875 
L 30.8125 34.90625 
L 49.125 54.6875 
z
" id="DejaVuSans-Oblique-120"/>
      </defs>
      <use transform="translate(0 0.3125)" xlink:href="#DejaVuSans-Oblique-120"/>
     </g>
    </g>
   </g>
   <g id="matplotlib.axis_2">
    <g id="ytick_1">
     <g id="line2d_7">
      <path clip-path="url(#p95720a06c2)" d="M 81 543.788142 
L 583.2 543.788142 
" style="fill:none;stroke:#ffffff;stroke-linecap:round;"/>
     </g>
     <g id="text_8">
      <!-- 0 -->
      <g style="fill:#262626;" transform="translate(64.50125 547.967282)scale(0.11 -0.11)">
       <use xlink:href="#DejaVuSans-48"/>
      </g>
     </g>
    </g>
    <g id="ytick_2">
     <g id="line2d_8">
      <path clip-path="url(#p95720a06c2)" d="M 81 455.118513 
L 583.2 455.118513 
" style="fill:none;stroke:#ffffff;stroke-linecap:round;"/>
     </g>
     <g id="text_9">
      <!-- 1 -->
      <g style="fill:#262626;" transform="translate(64.50125 459.297654)scale(0.11 -0.11)">
       <use xlink:href="#DejaVuSans-49"/>
      </g>
     </g>
    </g>
    <g id="ytick_3">
     <g id="line2d_9">
      <path clip-path="url(#p95720a06c2)" d="M 81 366.448885 
L 583.2 366.448885 
" style="fill:none;stroke:#ffffff;stroke-linecap:round;"/>
     </g>
     <g id="text_10">
      <!-- 2 -->
      <g style="fill:#262626;" transform="translate(64.50125 370.628026)scale(0.11 -0.11)">
       <use xlink:href="#DejaVuSans-50"/>
      </g>
     </g>
    </g>
    <g id="ytick_4">
     <g id="line2d_10">
      <path clip-path="url(#p95720a06c2)" d="M 81 277.779257 
L 583.2 277.779257 
" style="fill:none;stroke:#ffffff;stroke-linecap:round;"/>
     </g>
     <g id="text_11">
      <!-- 3 -->
      <g style="fill:#262626;" transform="translate(64.50125 281.958397)scale(0.11 -0.11)">
       <defs>
        <path d="M 40.578125 39.3125 
Q 47.65625 37.796875 51.625 33 
Q 55.609375 28.21875 55.609375 21.1875 
Q 55.609375 10.40625 48.1875 4.484375 
Q 40.765625 -1.421875 27.09375 -1.421875 
Q 22.515625 -1.421875 17.65625 -0.515625 
Q 12.796875 0.390625 7.625 2.203125 
L 7.625 11.71875 
Q 11.71875 9.328125 16.59375 8.109375 
Q 21.484375 6.890625 26.8125 6.890625 
Q 36.078125 6.890625 40.9375 10.546875 
Q 45.796875 14.203125 45.796875 21.1875 
Q 45.796875 27.640625 41.28125 31.265625 
Q 36.765625 34.90625 28.71875 34.90625 
L 20.21875 34.90625 
L 20.21875 43.015625 
L 29.109375 43.015625 
Q 36.375 43.015625 40.234375 45.921875 
Q 44.09375 48.828125 44.09375 54.296875 
Q 44.09375 59.90625 40.109375 62.90625 
Q 36.140625 65.921875 28.71875 65.921875 
Q 24.65625 65.921875 20.015625 65.03125 
Q 15.375 64.15625 9.8125 62.3125 
L 9.8125 71.09375 
Q 15.4375 72.65625 20.34375 73.4375 
Q 25.25 74.21875 29.59375 74.21875 
Q 40.828125 74.21875 47.359375 69.109375 
Q 53.90625 64.015625 53.90625 55.328125 
Q 53.90625 49.265625 50.4375 45.09375 
Q 46.96875 40.921875 40.578125 39.3125 
z
" id="DejaVuSans-51"/>
       </defs>
       <use xlink:href="#DejaVuSans-51"/>
      </g>
     </g>
    </g>
    <g id="ytick_5">
     <g id="line2d_11">
      <path clip-path="url(#p95720a06c2)" d="M 81 189.109628 
L 583.2 189.109628 
" style="fill:none;stroke:#ffffff;stroke-linecap:round;"/>
     </g>
     <g id="text_12">
      <!-- 4 -->
      <g style="fill:#262626;" transform="translate(64.50125 193.288769)scale(0.11 -0.11)">
       <use xlink:href="#DejaVuSans-52"/>
      </g>
     </g>
    </g>
    <g id="ytick_6">
     <g id="line2d_12">
      <path clip-path="url(#p95720a06c2)" d="M 81 100.44 
L 583.2 100.44 
" style="fill:none;stroke:#ffffff;stroke-linecap:round;"/>
     </g>
     <g id="text_13">
      <!-- 5 -->
      <g style="fill:#262626;" transform="translate(64.50125 104.619141)scale(0.11 -0.11)">
       <defs>
        <path d="M 10.796875 72.90625 
L 49.515625 72.90625 
L 49.515625 64.59375 
L 19.828125 64.59375 
L 19.828125 46.734375 
Q 21.96875 47.46875 24.109375 47.828125 
Q 26.265625 48.1875 28.421875 48.1875 
Q 40.625 48.1875 47.75 41.5 
Q 54.890625 34.8125 54.890625 23.390625 
Q 54.890625 11.625 47.5625 5.09375 
Q 40.234375 -1.421875 26.90625 -1.421875 
Q 22.3125 -1.421875 17.546875 -0.640625 
Q 12.796875 0.140625 7.71875 1.703125 
L 7.71875 11.625 
Q 12.109375 9.234375 16.796875 8.0625 
Q 21.484375 6.890625 26.703125 6.890625 
Q 35.15625 6.890625 40.078125 11.328125 
Q 45.015625 15.765625 45.015625 23.390625 
Q 45.015625 31 40.078125 35.4375 
Q 35.15625 39.890625 26.703125 39.890625 
Q 22.75 39.890625 18.8125 39.015625 
Q 14.890625 38.140625 10.796875 36.28125 
z
" id="DejaVuSans-53"/>
       </defs>
       <use xlink:href="#DejaVuSans-53"/>
      </g>
     </g>
    </g>
    <g id="text_14">
     <!-- $f(x)$ -->
     <g style="fill:#262626;" transform="translate(58.005625 337.62)rotate(-90)scale(0.12 -0.12)">
      <defs>
       <path d="M 47.796875 75.984375 
L 46.390625 68.5 
L 37.796875 68.5 
Q 32.90625 68.5 30.6875 66.578125 
Q 28.46875 64.65625 27.390625 59.515625 
L 26.421875 54.6875 
L 41.21875 54.6875 
L 39.890625 47.703125 
L 25.09375 47.703125 
L 15.828125 0 
L 6.78125 0 
L 16.109375 47.703125 
L 7.515625 47.703125 
L 8.796875 54.6875 
L 17.390625 54.6875 
L 18.109375 58.5 
Q 19.96875 68.171875 24.625 72.078125 
Q 29.296875 75.984375 39.3125 75.984375 
z
" id="DejaVuSans-Oblique-102"/>
       <path d="M 31 75.875 
Q 24.46875 64.65625 21.28125 53.65625 
Q 18.109375 42.671875 18.109375 31.390625 
Q 18.109375 20.125 21.3125 9.0625 
Q 24.515625 -2 31 -13.1875 
L 23.1875 -13.1875 
Q 15.875 -1.703125 12.234375 9.375 
Q 8.59375 20.453125 8.59375 31.390625 
Q 8.59375 42.28125 12.203125 53.3125 
Q 15.828125 64.359375 23.1875 75.875 
z
" id="DejaVuSans-40"/>
       <path d="M 8.015625 75.875 
L 15.828125 75.875 
Q 23.140625 64.359375 26.78125 53.3125 
Q 30.421875 42.28125 30.421875 31.390625 
Q 30.421875 20.453125 26.78125 9.375 
Q 23.140625 -1.703125 15.828125 -13.1875 
L 8.015625 -13.1875 
Q 14.5 -2 17.703125 9.0625 
Q 20.90625 20.125 20.90625 31.390625 
Q 20.90625 42.671875 17.703125 53.65625 
Q 14.5 64.65625 8.015625 75.875 
z
" id="DejaVuSans-41"/>
      </defs>
      <use transform="translate(0 0.015625)" xlink:href="#DejaVuSans-Oblique-102"/>
      <use transform="translate(35.205078 0.015625)" xlink:href="#DejaVuSans-40"/>
      <use transform="translate(74.21875 0.015625)" xlink:href="#DejaVuSans-Oblique-120"/>
      <use transform="translate(133.398438 0.015625)" xlink:href="#DejaVuSans-41"/>
     </g>
    </g>
   </g>
   <g id="line2d_13">
    <path clip-path="url(#p95720a06c2)" d="M 103.827273 105.726856 
L 104.101227 105.860583 
L 104.420841 106.356431 
L 104.786114 107.379252 
L 105.242705 109.366798 
L 105.790615 112.855388 
L 106.384183 118.111952 
L 107.06907 126.29307 
L 107.799615 137.801675 
L 108.621479 154.534659 
L 109.534662 178.156038 
L 110.539162 210.319163 
L 111.726299 255.923779 
L 113.415686 330.639188 
L 116.063915 447.544262 
L 117.251051 489.843591 
L 118.209893 516.48958 
L 119.031757 533.430352 
L 119.716643 543.409565 
L 120.310212 549.203314 
L 120.812462 552.231651 
L 121.223394 553.577504 
L 121.543008 554.005089 
L 121.771303 554.016947 
L 122.045258 553.745725 
L 122.410531 552.968316 
L 122.912781 551.293111 
L 123.734645 547.64912 
L 125.241396 540.957585 
L 125.926283 538.908841 
L 126.428533 538.010734 
L 126.839465 537.683063 
L 127.159079 537.679537 
L 127.524352 537.931941 
L 127.935284 538.514694 
L 128.483193 539.706038 
L 129.305057 542.095253 
L 131.040103 547.262103 
L 131.679331 548.471173 
L 132.181581 548.977239 
L 132.546854 549.074148 
L 132.912127 548.937588 
L 133.323059 548.511788 
L 133.825309 547.630911 
L 134.510196 545.907423 
L 135.83431 541.755886 
L 136.793151 539.121955 
L 137.38672 538.071572 
L 137.797652 537.70949 
L 138.117265 537.662825 
L 138.436879 537.833988 
L 138.802152 538.302096 
L 139.258743 539.289448 
L 139.852312 541.185575 
L 140.674176 544.6809 
L 142.454881 552.482018 
L 142.957131 553.70022 
L 143.276745 554.023707 
L 143.505041 553.995107 
L 143.733336 553.723265 
L 144.05295 552.890422 
L 144.418223 551.222866 
L 144.874814 547.944909 
L 145.377064 542.652834 
L 145.970633 533.92945 
L 146.655519 520.356655 
L 147.431724 500.369866 
L 148.344906 470.901958 
L 149.486384 426.405102 
L 151.22143 348.828045 
L 153.595704 244.089907 
L 154.874159 197.347555 
L 155.924319 166.426003 
L 156.88316 144.392615 
L 157.750683 129.319698 
L 158.526888 119.379377 
L 159.257434 112.731326 
L 159.896661 108.82406 
L 160.444571 106.760368 
L 160.855503 105.943616 
L 161.175117 105.728363 
L 161.403412 105.797539 
L 161.677367 106.126388 
L 162.04264 106.987536 
L 162.499231 108.764069 
L 163.001481 111.665513 
L 163.59505 116.477915 
L 164.279936 124.088057 
L 165.010482 134.917895 
L 165.786687 149.822867 
L 166.65421 170.951775 
L 167.613051 199.951235 
L 168.754529 241.768775 
L 170.215621 304.295666 
L 173.777031 460.454467 
L 174.87285 497.332978 
L 175.786032 521.101509 
L 176.562237 535.988477 
L 177.247124 545.152713 
L 177.840692 550.301841 
L 178.342942 552.846348 
L 178.708215 553.778713 
L 178.98217 554.031282 
L 179.210466 553.981385 
L 179.48442 553.644699 
L 179.849693 552.794869 
L 180.397602 550.863364 
L 181.356444 546.475183 
L 182.58924 541.06337 
L 183.274127 538.977237 
L 183.776377 538.047893 
L 184.187309 537.694187 
L 184.506923 537.670984 
L 184.826536 537.858965 
L 185.237468 538.386936 
L 185.785378 539.519747 
L 186.561583 541.716843 
L 188.524924 547.505751 
L 189.118493 548.556424 
L 189.575084 548.986672 
L 189.940357 549.073002 
L 190.30563 548.925907 
L 190.716562 548.488814 
L 191.218812 547.595713 
L 191.903699 545.859891 
L 193.273472 541.562522 
L 194.186654 539.08527 
L 194.780223 538.050768 
L 195.191155 537.701864 
L 195.510768 537.666278 
L 195.830382 537.848919 
L 196.195655 538.330211 
L 196.652246 539.333379 
L 197.245815 541.247335 
L 198.067679 544.758245 
L 199.802725 552.389376 
L 200.304975 553.6517 
L 200.624589 554.01108 
L 200.852884 554.011784 
L 201.08118 553.772228 
L 201.355135 553.135166 
L 201.720407 551.630083 
L 202.131339 548.9454 
L 202.63359 544.090646 
L 203.227158 535.923337 
L 203.912045 523.019752 
L 204.68825 503.785961 
L 205.601432 475.130744 
L 206.697251 433.317984 
L 208.29532 362.794019 
L 211.034866 241.607601 
L 212.313321 195.318775 
L 213.363481 164.817348 
L 214.322322 143.16231 
L 215.189845 128.404658 
L 215.96605 118.715534 
L 216.650937 112.608452 
L 217.290164 108.744763 
L 217.838074 106.715516 
L 218.249006 105.92348 
L 218.56862 105.727135 
L 218.796915 105.809794 
L 219.07087 106.154934 
L 219.436143 107.038238 
L 219.892734 108.843629 
L 220.440643 112.097576 
L 221.034212 117.074959 
L 221.719098 124.897236 
L 222.449644 135.979599 
L 223.271508 152.188446 
L 224.139031 173.919344 
L 225.143532 205.134746 
L 226.285009 247.930956 
L 227.837419 315.412263 
L 230.942239 452.401646 
L 232.083717 492.303443 
L 232.996899 517.279311 
L 233.818763 533.998492 
L 234.503649 543.800687 
L 235.097218 549.453778 
L 235.599468 552.376066 
L 236.0104 553.645708 
L 236.330014 554.021243 
L 236.558309 553.999991 
L 236.832264 553.693636 
L 237.197537 552.877295 
L 237.745446 550.981216 
L 238.658629 546.834146 
L 239.982743 541.002934 
L 240.667629 538.938057 
L 241.16988 538.026497 
L 241.580812 537.687626 
L 241.900425 537.675642 
L 242.265698 537.91898 
L 242.67663 538.492662 
L 243.22454 539.674381 
L 244.046404 542.055647 
L 245.827109 547.338509 
L 246.466337 548.517344 
L 246.922928 548.9698 
L 247.288201 549.074694 
L 247.653474 548.946098 
L 248.064406 548.528851 
L 248.566656 547.657252 
L 249.251542 545.943174 
L 250.529998 541.938285 
L 251.534498 539.149914 
L 252.128066 538.087616 
L 252.538998 537.715619 
L 252.904271 537.670319 
L 253.223885 537.864449 
L 253.589158 538.358917 
L 254.045749 539.377858 
L 254.639318 541.309529 
L 255.461182 544.835762 
L 257.150569 552.294639 
L 257.652819 553.600214 
L 258.018092 554.018708 
L 258.246387 554.002764 
L 258.474683 553.74486 
L 258.748638 553.083615 
L 259.11391 551.542814 
L 259.570502 548.440822 
L 260.072752 543.361142 
L 260.66632 534.907287 
L 261.351207 521.658142 
L 262.127412 502.034605 
L 263.040594 472.957466 
L 264.182072 428.841465 
L 265.871459 353.618818 
L 268.38271 242.765489 
L 269.661165 196.264046 
L 270.711325 165.566138 
L 271.670166 143.734422 
L 272.537689 128.829704 
L 273.313894 119.023475 
L 274.04444 112.486765 
L 274.683667 108.666542 
L 275.185918 106.794915 
L 275.59685 105.959477 
L 275.916463 105.729938 
L 276.144759 105.788933 
L 276.418714 106.105485 
L 276.783987 106.949918 
L 277.240578 108.704691 
L 277.742828 111.580597 
L 278.336396 116.360025 
L 278.975624 123.349948 
L 279.70617 133.945735 
L 280.482375 148.577697 
L 281.349898 169.382984 
L 282.308739 198.025345 
L 283.404558 237.66803 
L 284.81999 297.571451 
L 288.701015 466.723035 
L 289.751174 500.96315 
L 290.618697 522.836484 
L 291.394902 537.22835 
L 292.079789 545.979749 
L 292.627698 550.518489 
L 293.084289 552.801378 
L 293.449562 553.758428 
L 293.723517 554.027433 
L 293.951812 553.989815 
L 294.225767 553.666122 
L 294.59104 552.830624 
L 295.138949 550.914248 
L 296.097791 546.535279 
L 297.376246 540.942948 
L 298.061132 538.899445 
L 298.563383 538.0057 
L 298.974315 537.681658 
L 299.293928 537.680868 
L 299.659201 537.936204 
L 300.070133 538.521887 
L 300.618043 539.716335 
L 301.439907 542.108098 
L 303.174953 547.271525 
L 303.814181 548.476916 
L 304.316431 548.979591 
L 304.681704 549.073912 
L 305.046977 548.934773 
L 305.457909 548.506207 
L 305.960159 547.622331 
L 306.645045 545.895812 
L 307.96916 541.743228 
L 308.928001 539.112943 
L 309.521569 538.066435 
L 309.932501 537.707572 
L 310.252115 537.663616 
L 310.571729 537.837586 
L 310.937002 538.308922 
L 311.393593 539.300147 
L 311.987161 541.200648 
L 312.809025 544.699811 
L 314.544072 552.348865 
L 315.046322 553.629907 
L 315.365936 554.004561 
L 315.594231 554.017757 
L 315.822527 553.791977 
L 316.096481 553.173088 
L 316.461754 551.694868 
L 316.872686 549.043678 
L 317.374937 544.233871 
L 317.968505 536.123964 
L 318.653392 523.289786 
L 319.429597 504.134515 
L 320.342779 475.564631 
L 321.438597 433.833681 
L 323.036666 363.369436 
L 325.821872 240.293439 
L 327.054668 195.724868 
L 328.104828 165.138875 
L 329.063669 143.407851 
L 329.931192 128.586982 
L 330.707397 118.847534 
L 331.437943 112.366261 
L 332.07717 108.589394 
L 332.579421 106.749298 
L 332.990353 105.938597 
L 333.309966 105.727972 
L 333.538262 105.800447 
L 333.812217 106.133282 
L 334.17749 106.999849 
L 334.634081 108.783438 
L 335.136331 111.693168 
L 335.729899 116.516268 
L 336.414786 124.140167 
L 337.145332 134.986393 
L 337.921537 149.910456 
L 338.78906 171.061951 
L 339.747901 200.086266 
L 340.889379 241.930031 
L 342.350471 304.478789 
L 345.911881 460.60603 
L 347.0077 497.453152 
L 347.920882 521.192031 
L 348.697087 536.053486 
L 349.381974 545.196383 
L 349.975542 550.328735 
L 350.477792 552.860726 
L 350.843065 553.785115 
L 351.11702 554.032377 
L 351.345315 553.978517 
L 351.61927 553.637641 
L 351.984543 552.783191 
L 352.532452 550.846821 
L 353.491294 546.455715 
L 354.72409 541.04854 
L 355.408976 538.967597 
L 355.911227 538.042602 
L 356.322159 537.692527 
L 356.641772 537.672071 
L 356.961386 537.862649 
L 357.372318 538.393631 
L 357.920227 539.529681 
L 358.696432 541.729484 
L 360.659774 547.514619 
L 361.253343 548.561764 
L 361.709934 548.988908 
L 362.075207 549.072648 
L 362.44048 548.922977 
L 362.851412 548.483125 
L 363.353662 547.587044 
L 364.038548 545.848225 
L 365.453981 541.409509 
L 366.367163 538.977523 
L 366.915072 538.045753 
L 367.326004 537.700083 
L 367.645618 537.667213 
L 367.965232 537.852664 
L 368.330505 538.337181 
L 368.787096 539.344213 
L 369.380664 541.262515 
L 370.202528 544.777199 
L 371.937575 552.402419 
L 372.439825 553.658644 
L 372.759439 554.013052 
L 372.987734 554.009694 
L 373.21603 553.765659 
L 373.489984 553.122692 
L 373.855257 551.608885 
L 374.311848 548.544447 
L 374.814099 543.510197 
L 375.407667 535.114125 
L 376.092554 521.934539 
L 376.868759 502.389298 
L 377.781941 473.396699 
L 378.923419 429.363603 
L 380.612806 354.196029 
L 383.124057 243.265011 
L 384.402512 196.672419 
L 385.452672 165.890024 
L 386.411513 143.982192 
L 387.279036 129.014034 
L 388.055241 119.157248 
L 388.785787 112.578565 
L 389.425014 108.725522 
L 389.972924 106.704694 
L 390.383856 105.918703 
L 390.703469 105.726984 
L 390.931765 105.812942 
L 391.20572 106.162071 
L 391.570993 107.0508 
L 392.027584 108.863263 
L 392.575493 112.126304 
L 393.169061 117.114497 
L 393.853948 124.950675 
L 394.584494 136.04957 
L 395.406358 152.278794 
L 396.273881 174.032359 
L 397.278381 205.273599 
L 398.419859 248.095244 
L 399.972269 315.597281 
L 403.077089 452.558406 
L 404.218566 492.428764 
L 405.131749 517.375325 
L 405.953613 534.067402 
L 406.638499 543.847979 
L 407.232068 549.483915 
L 407.734318 552.393288 
L 408.14525 553.65366 
L 408.464864 554.022874 
L 408.693159 553.997605 
L 408.967114 553.686993 
L 409.332387 552.865945 
L 409.880296 550.964871 
L 410.839138 546.595384 
L 412.117593 540.988213 
L 412.802479 538.928556 
L 413.30473 538.021352 
L 413.715662 537.686111 
L 414.035275 537.676869 
L 414.400548 537.923147 
L 414.81148 538.499773 
L 415.35939 539.684618 
L 416.181254 542.068473 
L 417.961959 547.347763 
L 418.601186 548.522873 
L 419.057778 548.97224 
L 419.42305 549.074547 
L 419.788323 548.94337 
L 420.199255 548.52335 
L 420.701506 547.64874 
L 421.386392 545.931605 
L 422.664847 541.925523 
L 423.669348 539.140832 
L 424.262916 538.082387 
L 424.673848 537.713599 
L 425.039121 537.671398 
L 425.358735 537.868341 
L 425.724008 538.366032 
L 426.180599 539.388826 
L 426.774167 541.324814 
L 427.596031 544.854756 
L 429.285419 552.307971 
L 429.787669 553.607568 
L 430.152942 554.0204 
L 430.381237 554.000363 
L 430.609533 553.737951 
L 430.883487 553.070766 
L 431.24876 551.521198 
L 431.705351 548.407016 
L 432.207602 543.312596 
L 432.80117 534.840004 
L 433.486057 521.568315 
L 434.262262 501.919421 
L 435.175444 472.814926 
L 436.316922 428.672136 
L 438.006309 353.431786 
L 440.51756 242.60381 
L 441.796015 196.131943 
L 442.846175 165.461417 
L 443.805016 143.654351 
L 444.672539 128.770167 
L 445.448744 118.980296 
L 446.17929 112.457167 
L 446.818517 108.647564 
L 447.320768 106.783659 
L 447.7317 105.954276 
L 448.051313 105.729366 
L 448.279609 105.79166 
L 448.553564 106.112195 
L 448.918836 106.962043 
L 449.375428 108.723862 
L 449.877678 111.608037 
L 450.471246 116.398141 
L 451.110474 123.400829 
L 451.84102 134.012867 
L 452.617224 148.663807 
L 453.484748 169.491628 
L 454.443589 198.158912 
L 455.539408 237.827155 
L 456.95484 297.753142 
L 460.790205 465.207168 
L 461.886024 501.079399 
L 462.753547 522.924395 
L 463.529752 537.290824 
L 464.214639 546.021085 
L 464.762548 550.544506 
L 465.219139 552.816047 
L 465.584412 553.765087 
L 465.858367 554.028758 
L 466.086662 553.987153 
L 466.360617 553.659241 
L 466.72589 552.819087 
L 467.273799 550.89779 
L 468.232641 546.515807 
L 469.465437 541.0944 
L 470.150323 538.99746 
L 470.652573 538.059048 
L 471.063505 537.697765 
L 471.383119 537.668825 
L 471.702733 537.851379 
L 472.113665 538.373058 
L 472.661574 539.499085 
L 473.437779 541.690492 
L 475.401121 547.487179 
L 475.994689 548.545196 
L 476.451281 548.981915 
L 476.816553 549.073647 
L 477.181826 548.93193 
L 477.592758 548.500599 
L 478.095009 547.61373 
L 478.779895 545.884187 
L 480.104009 541.730577 
L 481.062851 539.103953 
L 481.656419 538.061327 
L 482.067351 537.705688 
L 482.386965 537.664442 
L 482.706579 537.84122 
L 483.071852 538.315782 
L 483.528443 539.31088 
L 484.122011 541.215748 
L 484.943875 544.718733 
L 486.678922 552.362033 
L 487.181172 553.637028 
L 487.500786 554.006744 
L 487.729081 554.0159 
L 487.957377 553.785665 
L 488.231331 553.160897 
L 488.596604 551.673984 
L 489.007536 549.011953 
L 489.509786 544.187594 
L 490.103355 536.059098 
L 490.788242 523.202435 
L 491.564446 504.021719 
L 492.477629 475.42417 
L 493.573447 433.66668 
L 495.171516 363.183018 
L 497.956722 240.133022 
L 499.189518 195.593187 
L 500.239678 165.034589 
L 501.198519 143.328191 
L 502.066042 128.527815 
L 502.842247 118.804683 
L 503.572793 112.336952 
L 504.21202 108.570678 
L 504.714271 106.73829 
L 505.125203 105.933638 
L 505.444816 105.72764 
L 505.673112 105.803414 
L 505.947067 106.140235 
L 506.312339 107.012223 
L 506.768931 108.802873 
L 507.271181 111.720893 
L 507.864749 116.554698 
L 508.549636 124.192364 
L 509.280182 135.054987 
L 510.056387 149.998149 
L 510.92391 171.172233 
L 511.882751 200.221399 
L 513.024229 242.091369 
L 514.48532 304.661948 
L 518.046731 460.75749 
L 519.14255 497.573199 
L 520.055732 521.282419 
L 520.831937 536.118363 
L 521.516824 545.239931 
L 522.110392 550.355521 
L 522.612642 552.87501 
L 522.977915 553.791435 
L 523.25187 554.033398 
L 523.480165 553.975583 
L 523.75412 553.630525 
L 524.119393 552.771469 
L 524.667302 550.830252 
L 525.671803 546.217189 
L 526.85894 541.033736 
L 527.543826 538.957991 
L 528.046076 538.037346 
L 528.457008 537.690902 
L 528.776622 537.673193 
L 529.096236 537.866366 
L 529.507168 538.400352 
L 530.055077 539.539635 
L 530.831282 541.742134 
L 532.748965 547.422627 
L 533.388192 548.567078 
L 533.844784 548.991115 
L 534.210056 549.072265 
L 534.575329 548.920019 
L 534.986261 548.477411 
L 535.488512 547.578354 
L 536.173398 545.836546 
L 537.588831 541.397089 
L 538.502013 538.968888 
L 539.049922 538.040768 
L 539.460854 537.698336 
L 539.780468 537.668182 
L 540.100082 537.856445 
L 540.465355 538.344186 
L 540.921946 539.35508 
L 541.515514 541.277721 
L 542.337378 544.796163 
L 544.072425 552.41542 
L 544.574675 553.665529 
L 544.894289 554.014956 
L 545.122584 554.007528 
L 545.35088 553.759007 
L 545.624834 553.110127 
L 545.990107 551.587585 
L 546.446698 548.510991 
L 546.948949 543.462032 
L 547.542517 535.047247 
L 548.227404 521.845127 
L 549.003609 502.274513 
L 549.916791 473.254505 
L 551.058269 429.194511 
L 552.747656 354.009021 
L 555.258907 243.103081 
L 556.537362 196.539999 
L 557.587521 165.784974 
L 558.546363 143.90181 
L 559.413886 128.954216 
L 560.190091 119.113822 
L 560.372727 117.240462 
L 560.372727 117.240462 
" style="fill:none;stroke:#0173b2;stroke-linecap:round;stroke-width:1.5;"/>
   </g>
   <g id="line2d_14">
    <path clip-path="url(#p95720a06c2)" d="M 103.827273 105.726856 
L 105.060069 105.835159 
L 106.292865 106.160886 
L 107.57132 106.730957 
L 108.895434 107.575512 
L 110.219548 108.685584 
L 111.589322 110.122807 
L 113.004754 111.928919 
L 114.511505 114.226594 
L 116.063915 117.019054 
L 117.661983 120.368887 
L 119.305711 124.345323 
L 120.995099 129.023938 
L 122.730145 134.485954 
L 124.556509 140.989326 
L 126.428533 148.49169 
L 128.391875 157.301222 
L 130.446535 167.577678 
L 132.592513 179.478883 
L 134.875468 193.444174 
L 137.295401 209.67858 
L 139.897971 228.694579 
L 142.774495 251.414065 
L 146.061951 279.224749 
L 150.21693 316.400244 
L 161.814344 421.31461 
L 165.010482 447.544262 
L 167.750029 468.227596 
L 170.169962 484.862396 
L 172.407258 498.728264 
L 174.461918 510.097486 
L 176.379601 519.486577 
L 178.160306 527.131904 
L 179.849693 533.430352 
L 181.447762 538.54408 
L 182.954513 542.631848 
L 184.369945 545.844506 
L 185.694059 548.321874 
L 186.972515 550.252223 
L 188.159651 551.659953 
L 189.301129 552.684399 
L 190.396948 553.383345 
L 191.492767 553.822807 
L 192.588585 554.022609 
L 193.730063 553.998005 
L 194.9172 553.745725 
L 196.195655 553.246367 
L 197.656747 552.429499 
L 199.346134 551.221817 
L 201.492112 549.396979 
L 205.1905 545.898139 
L 208.751911 542.647802 
L 211.034866 540.859229 
L 212.998208 539.594884 
L 214.778913 538.705551 
L 216.4683 538.107562 
L 218.112028 537.763623 
L 219.710097 537.65429 
L 221.353825 537.766437 
L 223.043213 538.104826 
L 224.869577 538.700568 
L 226.924237 539.614166 
L 229.389829 540.970548 
L 233.088217 543.296868 
L 237.608469 546.083868 
L 240.11972 547.367007 
L 242.265698 548.216838 
L 244.183381 548.743607 
L 246.009746 549.019349 
L 247.790451 549.065474 
L 249.571156 548.889941 
L 251.397521 548.486443 
L 253.360862 547.818218 
L 255.506841 546.844998 
L 258.063751 545.426576 
L 261.944775 542.978084 
L 266.191073 540.369216 
L 268.611006 539.142333 
L 270.620007 538.362611 
L 272.446371 537.887723 
L 274.135758 537.67445 
L 275.779486 537.692799 
L 277.377555 537.933697 
L 278.975624 538.397308 
L 280.665011 539.125163 
L 282.445716 540.1426 
L 284.409058 541.531235 
L 286.692014 543.432564 
L 289.933811 546.458935 
L 294.271426 550.470257 
L 296.326086 552.059503 
L 297.969814 553.060577 
L 299.385247 553.670105 
L 300.663702 553.978996 
L 301.80518 554.032201 
L 302.900998 553.862679 
L 303.951158 553.478113 
L 305.001317 552.858354 
L 306.097136 551.942668 
L 307.192955 550.734337 
L 308.334433 549.14607 
L 309.567229 547.032746 
L 310.845684 544.383512 
L 312.215457 541.005846 
L 313.630889 536.908566 
L 315.13764 531.849692 
L 316.735709 525.68293 
L 318.425096 518.257989 
L 320.251461 509.185797 
L 322.169143 498.510193 
L 324.269462 485.512655 
L 326.552418 469.926099 
L 329.063669 451.182623 
L 331.894534 428.3186 
L 335.273308 399.136052 
L 340.021856 355.989037 
L 348.149178 282.09024 
L 351.756247 251.48329 
L 354.815408 227.374162 
L 357.554955 207.510897 
L 360.066206 190.885594 
L 362.44048 176.634619 
L 364.677776 164.540109 
L 366.778095 154.364277 
L 368.787096 145.68116 
L 370.750438 138.159157 
L 372.622461 131.840375 
L 374.448826 126.441894 
L 376.183872 121.978881 
L 377.873259 118.223017 
L 379.516987 115.096535 
L 381.115056 112.528836 
L 382.621807 110.511888 
L 384.082898 108.912703 
L 385.498331 107.684315 
L 386.868104 106.785517 
L 388.192218 106.180199 
L 389.470673 105.836652 
L 390.749129 105.726955 
L 391.981925 105.841798 
L 393.214721 106.174115 
L 394.493176 106.751125 
L 395.81729 107.603035 
L 397.141404 108.720686 
L 398.511177 110.166039 
L 399.92661 111.980913 
L 401.433361 114.288372 
L 402.98577 117.091448 
L 404.583839 120.452813 
L 406.227567 124.441768 
L 407.916954 129.133941 
L 409.69766 134.763996 
L 411.524024 141.303242 
L 413.396048 148.843801 
L 415.35939 157.694581 
L 417.41405 168.015005 
L 419.560028 179.962328 
L 421.842983 193.975992 
L 424.262916 210.259727 
L 426.865486 229.325036 
L 429.74201 252.092538 
L 433.029466 279.94708 
L 437.230104 317.574253 
L 448.553564 420.075499 
L 451.749701 446.396379 
L 454.489248 467.176865 
L 456.909181 483.909379 
L 459.146477 497.873203 
L 461.201137 509.336888 
L 463.11882 518.8164 
L 464.899525 526.54631 
L 466.588913 532.924452 
L 468.186981 538.112164 
L 469.693732 542.26771 
L 471.109165 545.541713 
L 472.433279 548.07399 
L 473.711734 550.054728 
L 474.898871 551.506677 
L 476.040349 552.571104 
L 477.136167 553.305936 
L 478.231986 553.778713 
L 479.327805 554.009156 
L 480.469282 554.013538 
L 481.656419 553.788162 
L 482.934874 553.314033 
L 484.395966 552.521223 
L 486.085353 551.335071 
L 488.185672 549.569141 
L 491.564446 546.387514 
L 495.49113 542.771437 
L 497.819745 540.930752 
L 499.783086 539.652229 
L 501.563792 538.748487 
L 503.253179 538.136034 
L 504.896907 537.777775 
L 506.494976 537.654714 
L 508.138704 537.753353 
L 509.828091 538.078904 
L 511.654455 538.662378 
L 513.663456 539.542145 
L 516.083389 540.857614 
L 519.599141 543.055561 
L 524.484666 546.079114 
L 526.995917 547.363165 
L 529.141895 548.214005 
L 531.059578 548.741805 
L 532.885942 549.0186 
L 534.666648 549.065781 
L 536.447353 548.891293 
L 538.273717 548.488814 
L 540.237059 547.821581 
L 542.383037 546.849271 
L 544.939948 545.431626 
L 548.775313 543.013005 
L 553.067269 540.373949 
L 555.487202 539.146122 
L 557.496203 538.365358 
L 559.322568 537.889357 
L 560.372727 537.729201 
L 560.372727 537.729201 
" style="fill:none;stroke:#de8f05;stroke-linecap:round;stroke-width:1.5;"/>
   </g>
   <g id="line2d_15">
    <path clip-path="url(#p95720a06c2)" d="M 103.827273 100.44 
L 104.055568 100.578539 
L 104.329523 101.110395 
L 104.694796 102.439104 
L 105.151387 105.092537 
L 105.699296 109.723274 
L 106.338524 117.098719 
L 107.114729 128.860024 
L 107.982252 145.545784 
L 108.986752 169.341355 
L 110.12823 201.857654 
L 111.452344 246.222763 
L 113.004754 306.114428 
L 114.922437 389.353612 
L 117.707643 521.277368 
L 118.255552 543.788142 
L 146.838156 543.788142 
L 146.975133 538.197218 
L 150.673521 363.975916 
L 152.636863 281.657434 
L 154.234932 223.407967 
L 155.604705 181.209562 
L 156.791842 151.194709 
L 157.796342 130.955315 
L 158.663865 117.484361 
L 159.44007 108.687304 
L 160.079298 103.799568 
L 160.581548 101.470216 
L 160.946821 100.616089 
L 161.220776 100.44073 
L 161.449071 100.59938 
L 161.723026 101.155351 
L 162.088299 102.516147 
L 162.54489 105.209509 
L 163.092799 109.887766 
L 163.732027 117.317892 
L 164.508232 129.144126 
L 165.375755 145.900005 
L 166.380255 169.772735 
L 167.521733 202.370337 
L 168.845847 246.819656 
L 170.398257 306.793982 
L 172.31594 390.108018 
L 175.101146 522.080908 
L 175.649055 543.788142 
L 204.231659 543.788142 
L 205.144841 499.780527 
L 208.24966 355.179061 
L 210.167343 275.682608 
L 211.719753 219.80975 
L 213.043867 179.479321 
L 214.231004 149.800142 
L 215.235504 129.863401 
L 216.103028 116.664589 
L 216.833573 108.53356 
L 217.472801 103.701436 
L 217.975051 101.416129 
L 218.340324 100.594145 
L 218.614279 100.44292 
L 218.842574 100.621681 
L 219.116529 101.201765 
L 219.481802 102.594644 
L 219.938393 105.327926 
L 220.486302 110.053688 
L 221.171189 118.153483 
L 221.947394 130.223195 
L 222.860576 148.238169 
L 223.910736 173.828236 
L 225.097873 208.620879 
L 226.467646 255.752535 
L 228.065715 318.832494 
L 230.074716 407.626365 
L 233.088217 543.788142 
L 261.579502 543.788142 
L 261.625162 543.23821 
L 265.414868 364.531522 
L 267.37821 282.147749 
L 268.976279 223.828298 
L 270.346052 181.559595 
L 271.533189 151.477398 
L 272.537689 131.177245 
L 273.405212 117.651632 
L 274.181417 108.804374 
L 274.820645 103.874647 
L 275.322895 101.512033 
L 275.688168 100.63363 
L 275.962123 100.440044 
L 276.190418 100.583504 
L 276.464373 101.121262 
L 276.829646 102.457823 
L 277.286237 105.121028 
L 277.834146 109.763395 
L 278.473374 117.152223 
L 279.249579 128.929421 
L 280.117102 145.632345 
L 281.121602 169.446806 
L 282.26308 201.98301 
L 283.587194 246.36874 
L 285.139604 306.280651 
L 287.057287 389.538178 
L 289.842492 521.473998 
L 290.390402 543.788142 
L 318.973005 543.788142 
L 319.155642 535.783882 
L 322.808371 363.795972 
L 324.771713 281.498678 
L 326.369782 223.271909 
L 327.739555 181.096297 
L 328.926692 151.103277 
L 329.931192 130.883576 
L 330.798715 117.430338 
L 331.57492 108.649548 
L 332.214148 103.77542 
L 332.716398 101.456845 
L 333.081671 100.610584 
L 333.355626 100.441131 
L 333.583921 100.604703 
L 333.857876 101.166575 
L 334.223149 102.535222 
L 334.67974 105.238354 
L 335.227649 109.928237 
L 335.866877 117.37174 
L 336.643082 129.213857 
L 337.510605 145.986887 
L 338.515105 169.878487 
L 339.656583 202.495968 
L 340.980697 246.965872 
L 342.533107 306.960396 
L 344.45079 390.292708 
L 347.235995 522.277555 
L 347.783905 543.788142 
L 376.366508 543.788142 
L 381.252033 317.800728 
L 382.98708 249.831487 
L 384.448171 200.710932 
L 385.726626 164.882164 
L 386.822445 140.050358 
L 387.781286 123.075781 
L 388.60315 112.208788 
L 389.288037 105.81867 
L 389.835946 102.478259 
L 390.292537 100.907483 
L 390.612151 100.466465 
L 390.840447 100.483905 
L 391.068742 100.778395 
L 391.388356 101.655743 
L 391.799288 103.579292 
L 392.301538 107.140128 
L 392.895107 113.049797 
L 393.625653 122.817347 
L 394.447517 137.020764 
L 395.406358 157.743324 
L 396.502177 186.61759 
L 397.734973 225.21796 
L 399.196064 278.410383 
L 400.93111 350.25948 
L 403.214066 454.959992 
L 405.177408 543.788142 
L 433.714352 543.788142 
L 433.805671 540.82461 
L 437.549718 364.351469 
L 439.513059 281.988834 
L 441.111128 223.692045 
L 442.480902 181.44611 
L 443.668039 151.385726 
L 444.672539 131.105255 
L 445.540062 117.597349 
L 446.316267 108.766354 
L 446.955495 103.850231 
L 447.457745 101.498393 
L 447.823018 100.627855 
L 448.096972 100.440175 
L 448.325268 100.588557 
L 448.599223 101.132216 
L 448.964496 102.47663 
L 449.421087 105.149606 
L 449.968996 109.803602 
L 450.608224 117.205812 
L 451.384428 128.9989 
L 452.251952 145.718985 
L 453.256452 169.55233 
L 454.39793 202.108434 
L 455.722044 246.514776 
L 457.274454 306.446921 
L 459.192136 389.722774 
L 461.977342 521.670632 
L 462.525252 543.788142 
L 491.107855 543.788142 
L 491.38181 531.154795 
L 494.943221 363.616064 
L 496.906562 281.339973 
L 498.504631 223.135914 
L 499.874405 180.983104 
L 501.061542 151.011921 
L 502.066042 130.811918 
L 502.933565 117.376398 
L 503.70977 108.611878 
L 504.348998 103.751359 
L 504.851248 101.443562 
L 505.216521 100.605167 
L 505.490475 100.441619 
L 505.718771 100.610112 
L 505.992726 101.177885 
L 506.357999 102.554384 
L 506.81459 105.267285 
L 507.362499 109.968794 
L 508.001727 117.425673 
L 508.777931 129.283671 
L 509.645455 146.073847 
L 510.649955 169.984313 
L 511.791433 202.621667 
L 513.115547 247.112147 
L 514.667957 307.126857 
L 516.585639 390.477428 
L 519.370845 522.474207 
L 519.918755 543.788142 
L 548.455699 543.788142 
L 548.501358 543.648988 
L 552.291065 364.907303 
L 554.300065 280.691977 
L 555.898134 222.580839 
L 557.267908 180.521293 
L 558.455045 150.63941 
L 559.459545 130.519942 
L 560.327068 117.156851 
L 560.372727 116.559208 
L 560.372727 116.559208 
" style="fill:none;stroke:#029e73;stroke-linecap:round;stroke-width:1.5;"/>
   </g>
   <g id="line2d_16">
    <path clip-path="url(#p95720a06c2)" d="M 103.827273 100.44 
L 104.831773 100.547286 
L 105.881933 100.888814 
L 106.932092 101.464626 
L 108.07357 102.355878 
L 109.260707 103.575424 
L 110.539162 105.221535 
L 111.908935 107.366715 
L 113.370027 110.08775 
L 114.922437 113.465348 
L 116.566165 117.58369 
L 118.34687 122.6683 
L 120.218894 128.704051 
L 122.227895 135.957242 
L 124.373873 144.576592 
L 126.611169 154.501186 
L 128.985443 166.0549 
L 131.542353 179.638413 
L 134.236241 195.183794 
L 137.112765 213.120965 
L 140.171925 233.634837 
L 143.459381 257.228335 
L 146.975133 284.100125 
L 150.810498 315.164196 
L 155.056796 351.42764 
L 159.851002 394.351583 
L 165.558391 447.557298 
L 173.457418 523.491522 
L 175.649055 543.788142 
L 318.973005 543.788142 
L 319.155642 542.187206 
L 330.159488 436.418558 
L 336.049513 381.975061 
L 340.935038 338.818959 
L 345.226995 302.824738 
L 349.108019 272.100182 
L 352.66943 245.62685 
L 356.002545 222.490048 
L 359.107364 202.47518 
L 361.983888 185.337972 
L 364.723435 170.338122 
L 367.280345 157.549852 
L 369.700278 146.561412 
L 371.983234 137.217084 
L 374.129212 129.35961 
L 376.138213 122.832904 
L 378.010236 117.484361 
L 379.745283 113.166792 
L 381.389011 109.649891 
L 382.941421 106.844874 
L 384.356853 104.727464 
L 385.680967 103.128579 
L 386.913763 101.973055 
L 388.055241 101.190273 
L 389.15106 100.699031 
L 390.201219 100.467734 
L 391.20572 100.465926 
L 392.21022 100.678678 
L 393.26038 101.130398 
L 394.356198 101.8514 
L 395.497676 102.873109 
L 396.730472 104.286038 
L 398.054586 106.16045 
L 399.470019 108.57105 
L 400.976769 111.596664 
L 402.574838 115.319827 
L 404.264226 119.8263 
L 406.09059 125.350783 
L 408.008273 131.87177 
L 410.062933 139.66442 
L 412.25457 148.878014 
L 414.583185 159.663695 
L 417.048777 172.171943 
L 419.651346 186.549635 
L 422.436552 203.220355 
L 425.404394 222.37685 
L 428.554873 244.195652 
L 431.933647 269.177113 
L 435.586376 297.870576 
L 439.604378 331.242866 
L 444.078971 370.331381 
L 449.23845 417.444458 
L 455.630726 477.981479 
L 462.570911 543.788142 
L 560.372727 543.788142 
L 560.372727 543.788142 
" style="fill:none;stroke:#d55e00;stroke-linecap:round;stroke-width:1.5;"/>
   </g>
   <g id="patch_3">
    <path d="M 81 576.72 
L 81 77.76 
" style="fill:none;stroke:#ffffff;stroke-linecap:square;stroke-linejoin:miter;stroke-width:1.25;"/>
   </g>
   <g id="patch_4">
    <path d="M 583.2 576.72 
L 583.2 77.76 
" style="fill:none;stroke:#ffffff;stroke-linecap:square;stroke-linejoin:miter;stroke-width:1.25;"/>
   </g>
   <g id="patch_5">
    <path d="M 81 576.72 
L 583.2 576.72 
" style="fill:none;stroke:#ffffff;stroke-linecap:square;stroke-linejoin:miter;stroke-width:1.25;"/>
   </g>
   <g id="patch_6">
    <path d="M 81 77.76 
L 583.2 77.76 
" style="fill:none;stroke:#ffffff;stroke-linecap:square;stroke-linejoin:miter;stroke-width:1.25;"/>
   </g>
   <g id="text_15">
    <!-- Forces -->
    <g style="fill:#262626;" transform="translate(312.747187 71.76)scale(0.12 -0.12)">
     <defs>
      <path d="M 9.8125 72.90625 
L 51.703125 72.90625 
L 51.703125 64.59375 
L 19.671875 64.59375 
L 19.671875 43.109375 
L 48.578125 43.109375 
L 48.578125 34.8125 
L 19.671875 34.8125 
L 19.671875 0 
L 9.8125 0 
z
" id="DejaVuSans-70"/>
      <path d="M 30.609375 48.390625 
Q 23.390625 48.390625 19.1875 42.75 
Q 14.984375 37.109375 14.984375 27.296875 
Q 14.984375 17.484375 19.15625 11.84375 
Q 23.34375 6.203125 30.609375 6.203125 
Q 37.796875 6.203125 41.984375 11.859375 
Q 46.1875 17.53125 46.1875 27.296875 
Q 46.1875 37.015625 41.984375 42.703125 
Q 37.796875 48.390625 30.609375 48.390625 
z
M 30.609375 56 
Q 42.328125 56 49.015625 48.375 
Q 55.71875 40.765625 55.71875 27.296875 
Q 55.71875 13.875 49.015625 6.21875 
Q 42.328125 -1.421875 30.609375 -1.421875 
Q 18.84375 -1.421875 12.171875 6.21875 
Q 5.515625 13.875 5.515625 27.296875 
Q 5.515625 40.765625 12.171875 48.375 
Q 18.84375 56 30.609375 56 
z
" id="DejaVuSans-111"/>
      <path d="M 41.109375 46.296875 
Q 39.59375 47.171875 37.8125 47.578125 
Q 36.03125 48 33.890625 48 
Q 26.265625 48 22.1875 43.046875 
Q 18.109375 38.09375 18.109375 28.8125 
L 18.109375 0 
L 9.078125 0 
L 9.078125 54.6875 
L 18.109375 54.6875 
L 18.109375 46.1875 
Q 20.953125 51.171875 25.484375 53.578125 
Q 30.03125 56 36.53125 56 
Q 37.453125 56 38.578125 55.875 
Q 39.703125 55.765625 41.0625 55.515625 
z
" id="DejaVuSans-114"/>
      <path d="M 48.78125 52.59375 
L 48.78125 44.1875 
Q 44.96875 46.296875 41.140625 47.34375 
Q 37.3125 48.390625 33.40625 48.390625 
Q 24.65625 48.390625 19.8125 42.84375 
Q 14.984375 37.3125 14.984375 27.296875 
Q 14.984375 17.28125 19.8125 11.734375 
Q 24.65625 6.203125 33.40625 6.203125 
Q 37.3125 6.203125 41.140625 7.25 
Q 44.96875 8.296875 48.78125 10.40625 
L 48.78125 2.09375 
Q 45.015625 0.34375 40.984375 -0.53125 
Q 36.96875 -1.421875 32.421875 -1.421875 
Q 20.0625 -1.421875 12.78125 6.34375 
Q 5.515625 14.109375 5.515625 27.296875 
Q 5.515625 40.671875 12.859375 48.328125 
Q 20.21875 56 33.015625 56 
Q 37.15625 56 41.109375 55.140625 
Q 45.0625 54.296875 48.78125 52.59375 
z
" id="DejaVuSans-99"/>
      <path d="M 56.203125 29.59375 
L 56.203125 25.203125 
L 14.890625 25.203125 
Q 15.484375 15.921875 20.484375 11.0625 
Q 25.484375 6.203125 34.421875 6.203125 
Q 39.59375 6.203125 44.453125 7.46875 
Q 49.3125 8.734375 54.109375 11.28125 
L 54.109375 2.78125 
Q 49.265625 0.734375 44.1875 -0.34375 
Q 39.109375 -1.421875 33.890625 -1.421875 
Q 20.796875 -1.421875 13.15625 6.1875 
Q 5.515625 13.8125 5.515625 26.8125 
Q 5.515625 40.234375 12.765625 48.109375 
Q 20.015625 56 32.328125 56 
Q 43.359375 56 49.78125 48.890625 
Q 56.203125 41.796875 56.203125 29.59375 
z
M 47.21875 32.234375 
Q 47.125 39.59375 43.09375 43.984375 
Q 39.0625 48.390625 32.421875 48.390625 
Q 24.90625 48.390625 20.390625 44.140625 
Q 15.875 39.890625 15.1875 32.171875 
z
" id="DejaVuSans-101"/>
      <path d="M 44.28125 53.078125 
L 44.28125 44.578125 
Q 40.484375 46.53125 36.375 47.5 
Q 32.28125 48.484375 27.875 48.484375 
Q 21.1875 48.484375 17.84375 46.4375 
Q 14.5 44.390625 14.5 40.28125 
Q 14.5 37.15625 16.890625 35.375 
Q 19.28125 33.59375 26.515625 31.984375 
L 29.59375 31.296875 
Q 39.15625 29.25 43.1875 25.515625 
Q 47.21875 21.78125 47.21875 15.09375 
Q 47.21875 7.46875 41.1875 3.015625 
Q 35.15625 -1.421875 24.609375 -1.421875 
Q 20.21875 -1.421875 15.453125 -0.5625 
Q 10.6875 0.296875 5.421875 2 
L 5.421875 11.28125 
Q 10.40625 8.6875 15.234375 7.390625 
Q 20.0625 6.109375 24.8125 6.109375 
Q 31.15625 6.109375 34.5625 8.28125 
Q 37.984375 10.453125 37.984375 14.40625 
Q 37.984375 18.0625 35.515625 20.015625 
Q 33.0625 21.96875 24.703125 23.78125 
L 21.578125 24.515625 
Q 13.234375 26.265625 9.515625 29.90625 
Q 5.8125 33.546875 5.8125 39.890625 
Q 5.8125 47.609375 11.28125 51.796875 
Q 16.75 56 26.8125 56 
Q 31.78125 56 36.171875 55.265625 
Q 40.578125 54.546875 44.28125 53.078125 
z
" id="DejaVuSans-115"/>
     </defs>
     <use xlink:href="#DejaVuSans-70"/>
     <use x="53.894531" xlink:href="#DejaVuSans-111"/>
     <use x="115.076172" xlink:href="#DejaVuSans-114"/>
     <use x="153.939453" xlink:href="#DejaVuSans-99"/>
     <use x="208.919922" xlink:href="#DejaVuSans-101"/>
     <use x="270.443359" xlink:href="#DejaVuSans-115"/>
    </g>
   </g>
   <g id="legend_1">
    <g id="patch_7">
     <path d="M 450.43 361.181875 
L 575.5 361.181875 
Q 577.7 361.181875 577.7 358.981875 
L 577.7 295.498125 
Q 577.7 293.298125 575.5 293.298125 
L 450.43 293.298125 
Q 448.23 293.298125 448.23 295.498125 
L 448.23 358.981875 
Q 448.23 361.181875 450.43 361.181875 
z
" style="fill:#eaeaf2;opacity:0.8;stroke:#cccccc;stroke-linejoin:miter;"/>
    </g>
    <g id="line2d_17">
     <path d="M 452.63 302.206406 
L 474.63 302.206406 
" style="fill:none;stroke:#0173b2;stroke-linecap:round;stroke-width:1.5;"/>
    </g>
    <g id="line2d_18"/>
    <g id="text_16">
     <!-- $\omega=$0.5 : Fourier -->
     <g style="fill:#262626;" transform="translate(483.43 306.056406)scale(0.11 -0.11)">
      <defs>
       <path d="M 21.390625 -1.421875 
Q 1.125 -1.421875 6.78125 27.59375 
Q 8.984375 39.0625 19.625 54.6875 
L 29.296875 54.6875 
Q 19.234375 39.0625 17 27.34375 
Q 12.796875 6.203125 23.734375 6.203125 
Q 33.84375 6.203125 38.71875 32.46875 
L 47.015625 32.46875 
Q 41.703125 6.0625 51.8125 6.203125 
Q 62.703125 6.296875 66.796875 27.34375 
Q 69.046875 39.0625 65.140625 54.6875 
L 74.8125 54.6875 
Q 79.296875 39.0625 77.09375 27.59375 
Q 71.53125 -1.46875 51.21875 -1.421875 
Q 37.9375 -1.375 39.109375 13.1875 
Q 34.28125 -1.421875 21.390625 -1.421875 
z
" id="DejaVuSans-Oblique-969"/>
       <path d="M 10.59375 45.40625 
L 73.1875 45.40625 
L 73.1875 37.203125 
L 10.59375 37.203125 
z
M 10.59375 25.484375 
L 73.1875 25.484375 
L 73.1875 17.1875 
L 10.59375 17.1875 
z
" id="DejaVuSans-61"/>
       <path d="M 10.6875 12.40625 
L 21 12.40625 
L 21 0 
L 10.6875 0 
z
" id="DejaVuSans-46"/>
       <path id="DejaVuSans-32"/>
       <path d="M 11.71875 12.40625 
L 22.015625 12.40625 
L 22.015625 0 
L 11.71875 0 
z
M 11.71875 51.703125 
L 22.015625 51.703125 
L 22.015625 39.3125 
L 11.71875 39.3125 
z
" id="DejaVuSans-58"/>
       <path d="M 8.5 21.578125 
L 8.5 54.6875 
L 17.484375 54.6875 
L 17.484375 21.921875 
Q 17.484375 14.15625 20.5 10.265625 
Q 23.53125 6.390625 29.59375 6.390625 
Q 36.859375 6.390625 41.078125 11.03125 
Q 45.3125 15.671875 45.3125 23.6875 
L 45.3125 54.6875 
L 54.296875 54.6875 
L 54.296875 0 
L 45.3125 0 
L 45.3125 8.40625 
Q 42.046875 3.421875 37.71875 1 
Q 33.40625 -1.421875 27.6875 -1.421875 
Q 18.265625 -1.421875 13.375 4.4375 
Q 8.5 10.296875 8.5 21.578125 
z
M 31.109375 56 
z
" id="DejaVuSans-117"/>
       <path d="M 9.421875 54.6875 
L 18.40625 54.6875 
L 18.40625 0 
L 9.421875 0 
z
M 9.421875 75.984375 
L 18.40625 75.984375 
L 18.40625 64.59375 
L 9.421875 64.59375 
z
" id="DejaVuSans-105"/>
      </defs>
      <use transform="translate(0 0.015625)" xlink:href="#DejaVuSans-Oblique-969"/>
      <use transform="translate(103.222656 0.015625)" xlink:href="#DejaVuSans-61"/>
      <use transform="translate(206.494141 0.015625)" xlink:href="#DejaVuSans-48"/>
      <use transform="translate(270.117188 0.015625)" xlink:href="#DejaVuSans-46"/>
      <use transform="translate(301.904297 0.015625)" xlink:href="#DejaVuSans-53"/>
      <use transform="translate(365.527344 0.015625)" xlink:href="#DejaVuSans-32"/>
      <use transform="translate(397.314453 0.015625)" xlink:href="#DejaVuSans-58"/>
      <use transform="translate(431.005859 0.015625)" xlink:href="#DejaVuSans-32"/>
      <use transform="translate(462.792969 0.015625)" xlink:href="#DejaVuSans-70"/>
      <use transform="translate(520.3125 0.015625)" xlink:href="#DejaVuSans-111"/>
      <use transform="translate(581.494141 0.015625)" xlink:href="#DejaVuSans-117"/>
      <use transform="translate(644.873047 0.015625)" xlink:href="#DejaVuSans-114"/>
      <use transform="translate(685.986328 0.015625)" xlink:href="#DejaVuSans-105"/>
      <use transform="translate(713.769531 0.015625)" xlink:href="#DejaVuSans-101"/>
      <use transform="translate(775.292969 0.015625)" xlink:href="#DejaVuSans-114"/>
     </g>
    </g>
    <g id="line2d_19">
     <path d="M 452.63 318.352344 
L 474.63 318.352344 
" style="fill:none;stroke:#de8f05;stroke-linecap:round;stroke-width:1.5;"/>
    </g>
    <g id="line2d_20"/>
    <g id="text_17">
     <!-- $\omega=$0.1 : Fourier -->
     <g style="fill:#262626;" transform="translate(483.43 322.202344)scale(0.11 -0.11)">
      <use transform="translate(0 0.015625)" xlink:href="#DejaVuSans-Oblique-969"/>
      <use transform="translate(103.222656 0.015625)" xlink:href="#DejaVuSans-61"/>
      <use transform="translate(206.494141 0.015625)" xlink:href="#DejaVuSans-48"/>
      <use transform="translate(270.117188 0.015625)" xlink:href="#DejaVuSans-46"/>
      <use transform="translate(301.904297 0.015625)" xlink:href="#DejaVuSans-49"/>
      <use transform="translate(365.527344 0.015625)" xlink:href="#DejaVuSans-32"/>
      <use transform="translate(397.314453 0.015625)" xlink:href="#DejaVuSans-58"/>
      <use transform="translate(431.005859 0.015625)" xlink:href="#DejaVuSans-32"/>
      <use transform="translate(462.792969 0.015625)" xlink:href="#DejaVuSans-70"/>
      <use transform="translate(520.3125 0.015625)" xlink:href="#DejaVuSans-111"/>
      <use transform="translate(581.494141 0.015625)" xlink:href="#DejaVuSans-117"/>
      <use transform="translate(644.873047 0.015625)" xlink:href="#DejaVuSans-114"/>
      <use transform="translate(685.986328 0.015625)" xlink:href="#DejaVuSans-105"/>
      <use transform="translate(713.769531 0.015625)" xlink:href="#DejaVuSans-101"/>
      <use transform="translate(775.292969 0.015625)" xlink:href="#DejaVuSans-114"/>
     </g>
    </g>
    <g id="line2d_21">
     <path d="M 452.63 334.498281 
L 474.63 334.498281 
" style="fill:none;stroke:#029e73;stroke-linecap:round;stroke-width:1.5;"/>
    </g>
    <g id="line2d_22"/>
    <g id="text_18">
     <!-- $\omega=$0.5 -->
     <g style="fill:#262626;" transform="translate(483.43 338.348281)scale(0.11 -0.11)">
      <use transform="translate(0 0.78125)" xlink:href="#DejaVuSans-Oblique-969"/>
      <use transform="translate(103.222656 0.78125)" xlink:href="#DejaVuSans-61"/>
      <use transform="translate(206.494141 0.78125)" xlink:href="#DejaVuSans-48"/>
      <use transform="translate(270.117188 0.78125)" xlink:href="#DejaVuSans-46"/>
      <use transform="translate(301.904297 0.78125)" xlink:href="#DejaVuSans-53"/>
     </g>
    </g>
    <g id="line2d_23">
     <path d="M 452.63 350.644219 
L 474.63 350.644219 
" style="fill:none;stroke:#d55e00;stroke-linecap:round;stroke-width:1.5;"/>
    </g>
    <g id="line2d_24"/>
    <g id="text_19">
     <!-- $\omega=$0.1 -->
     <g style="fill:#262626;" transform="translate(483.43 354.494219)scale(0.11 -0.11)">
      <use transform="translate(0 0.78125)" xlink:href="#DejaVuSans-Oblique-969"/>
      <use transform="translate(103.222656 0.78125)" xlink:href="#DejaVuSans-61"/>
      <use transform="translate(206.494141 0.78125)" xlink:href="#DejaVuSans-48"/>
      <use transform="translate(270.117188 0.78125)" xlink:href="#DejaVuSans-46"/>
      <use transform="translate(301.904297 0.78125)" xlink:href="#DejaVuSans-49"/>
     </g>
    </g>
   </g>
  </g>
 </g>
 <defs>
  <clipPath id="p95720a06c2">
   <rect height="498.96" width="502.2" x="81" y="77.76"/>
  </clipPath>
 </defs>
</svg>
